<svg xmlns="http://www.w3.org/2000/svg" viewBox="0 0 120 29" fill="#1f2328"><path d="M25.972 9.268L11.231 0 0.595 6.198 15.283 15.461z"/><path d="M14.619 16.574L0 7.355 0 19.678 14.619 28.83z"/><path d="M15.912 17.343L15.912 28.892 25.921 23.138z"/><path d="M44.324 12.11c0 .191-.033.378-.098.558a1.26 1.26 0 0 1-.257.44l-4.568 6.028h4.795v2.055h-7.942v-1.125c0-.113.031-.254.093-.426.063-.17.15-.332.262-.483l4.607-6.098H36.54v-2.055h7.784v1.107z"/><path d="M52.937 14.897a2.88 2.88 0 0 0-.113-.81 1.89 1.89 0 0 0-.36-.682 1.746 1.746 0 0 0-.621-.47 2.14 2.14 0 0 0-.9-.172c-.65 0-1.16.184-1.528.553-.368.37-.608.896-.72 1.581h4.242zm-4.282 1.62c.085.956.358 1.655.814 2.096.457.441 1.054.662 1.79.662.33.006.657-.039.972-.134.273-.09.514-.187.721-.296l.562-.297a1.06 1.06 0 0 1 .499-.133c.21 0 .374.08.493.237l.79.988c-.29.336-.61.614-.958.836a5.11 5.11 0 0 1-1.085.523 5.836 5.836 0 0 1-1.135.267c-.381.049-.75.074-1.104.074a5.552 5.552 0 0 1-1.988-.35 4.507 4.507 0 0 1-1.609-1.039c-.457-.457-.817-1.025-1.08-1.704-.263-.678-.395-1.466-.395-2.362 0-.692.113-1.345.34-1.956.216-.595.55-1.14.982-1.601.44-.464.97-.832 1.559-1.082.612-.267 1.302-.4 2.071-.4.652 0 1.252.103 1.801.31a3.993 3.993 0 0 1 1.422.904c.397.396.706.882.926 1.458.22.577.33 1.234.33 1.972 0 .204-.009.372-.028.504a.894.894 0 0 1-.099.316.36.36 0 0 1-.187.163.885.885 0 0 1-.307.044h-6.097z"/><path d="M60.218 12.19c.204-.199.416-.38.636-.545a4.17 4.17 0 0 1 .7-.424c.248-.119.514-.21.8-.277.306-.068.619-.101.932-.099.553 0 1.043.096 1.47.287.428.191.788.458 1.08.8.293.343.514.751.662 1.225.147.475.221.996.221 1.562v6.472h-2.712V14.72c0-.567-.132-1.006-.395-1.319-.264-.313-.651-.47-1.164-.47-.382 0-.74.083-1.076.247a3.714 3.714 0 0 0-.957.692v7.322h-2.723V11.004h1.677c.342 0 .57.159.681.474l.168.713z"/><path d="M76.891 13.277a1.106 1.106 0 0 1-.237.241.57.57 0 0 1-.336.085.706.706 0 0 1-.38-.114 11.446 11.446 0 0 0-.419-.247 3.512 3.512 0 0 0-.562-.247 2.48 2.48 0 0 0-.809-.114c-.408 0-.762.074-1.06.222a1.981 1.981 0 0 0-.745.638c-.21.305-.359.647-.44 1.008-.1.437-.147.885-.142 1.334 0 1.041.208 1.838.626 2.391.417.553.987.83 1.712.83.25 0 .465-.02.647-.064.18-.043.337-.097.473-.163.134-.066.25-.138.35-.217.1-.08.192-.152.28-.217.09-.067.18-.121.268-.164a.686.686 0 0 1 .3-.065c.211 0 .374.08.494.239l.78.987c-.29.336-.61.614-.958.836a5.141 5.141 0 0 1-1.07.523c-.381.127-.754.22-1.135.267a7.945 7.945 0 0 1-1.075.074 4.555 4.555 0 0 1-1.776-.351 4.238 4.238 0 0 1-1.47-1.022 4.93 4.93 0 0 1-1.002-1.651c-.247-.652-.37-1.396-.37-2.233 0-.744.109-1.436.326-2.075a4.71 4.71 0 0 1 .957-1.66 4.409 4.409 0 0 1 1.564-1.103c.621-.266 1.34-.4 2.155-.4.777 0 1.457.125 2.043.376.585.25 1.111.613 1.578 1.087l-.71.969z"/><path d="M85.011 16.933c-.665.033-1.218.09-1.658.173-.44.082-.791.19-1.05.321-.26.132-.445.281-.553.45a.99.99 0 0 0-.163.548c0 .395.11.675.33.84.22.165.528.246.923.246.454 0 .847-.08 1.179-.241.332-.162.662-.414.991-.756v-1.581zm-5.545-4.516a6.08 6.08 0 0 1 1.983-1.211 6.746 6.746 0 0 1 2.348-.4c.605 0 1.146.099 1.623.296.476.198.881.472 1.213.826.332.352.587.772.764 1.26a4.62 4.62 0 0 1 .267 1.6v6.404H86.42c-.257 0-.452-.036-.587-.109-.134-.072-.245-.223-.33-.454l-.217-.653a9.482 9.482 0 0 1-.746.593c-.24.171-.487.315-.744.43-.264.118-.54.206-.824.262-.293.06-.62.089-.982.089-.447 0-.855-.06-1.223-.178a2.654 2.654 0 0 1-.952-.528c-.27-.24-.482-.54-.617-.875a3.126 3.126 0 0 1-.217-1.206c0-.375.095-.751.287-1.126.19-.376.517-.717.981-1.023.464-.307 1.081-.56 1.856-.761.771-.201 1.74-.315 2.904-.34v-.525c0-.638-.134-1.108-.404-1.408-.27-.3-.658-.45-1.164-.45-.375 0-.688.044-.937.134a4.57 4.57 0 0 0-.656.287l-.528.286a1.181 1.181 0 0 1-.573.133.779.779 0 0 1-.478-.143 1.304 1.304 0 0 1-.321-.341l-.483-.869z"/><path d="M92.982 12.683c.322-.58.694-1.038 1.115-1.373a2.3 2.3 0 0 1 1.48-.504c.46 0 .834.109 1.123.326l-.177 2.016c-.032.132-.083.222-.153.272a.474.474 0 0 1-.28.074c-.105 0-.257-.015-.454-.045a3.766 3.766 0 0 0-.553-.044c-.25 0-.472.036-.666.108a1.68 1.68 0 0 0-.517.307 2.215 2.215 0 0 0-.41.485c-.121.19-.236.408-.34.652v6.234h-2.724V11.004h1.609c.276 0 .466.05.572.148.105.1.18.27.227.514l.148 1.018z"/><path d="M102.226 15.717c.56 0 .972-.142 1.239-.425.266-.283.4-.649.4-1.096 0-.468-.134-.836-.4-1.102-.267-.268-.68-.4-1.239-.4s-.97.132-1.234.4c-.262.266-.394.634-.394 1.102 0 .44.134.805.4 1.092.267.286.675.43 1.228.43zm2.576 5.89a.59.59 0 0 0-.169-.434 1.179 1.179 0 0 0-.448-.267 3.094 3.094 0 0 0-.667-.144c-.272-.031-.545-.054-.818-.07-.29-.016-.59-.03-.898-.043a13.18 13.18 0 0 1-.908-.07c-.23.138-.42.302-.567.49-.25.31-.293.738-.108 1.092a.937.937 0 0 0 .38.356 2.4 2.4 0 0 0 .7.231c.29.056.65.085 1.085.085.447 0 .825-.03 1.134-.09.31-.059.56-.143.75-.252.192-.108.328-.238.41-.39.082-.151.125-.32.124-.493zm2.703-10.267v.998a.52.52 0 0 1-.133.374c-.09.094-.236.162-.44.209l-.828.168c.114.334.17.685.167 1.038.008.474-.099.943-.31 1.367a3.127 3.127 0 0 1-.854 1.039 3.933 3.933 0 0 1-1.282.662 5.308 5.308 0 0 1-1.599.232c-.361 0-.7-.03-1.016-.09-.276.172-.414.36-.414.564 0 .19.093.33.28.416.188.085.435.146.741.183.306.035.654.058 1.046.068.39.01.789.031 1.193.064.404.034.803.09 1.194.174.392.082.74.217 1.046.404.306.187.553.437.74.747.188.31.281.708.281 1.195 0 .455-.112.897-.336 1.325-.239.446-.57.837-.972 1.146-.423.336-.944.606-1.563.81-.618.204-1.322.307-2.11.307-.784 0-1.464-.074-2.038-.223-.576-.148-1.053-.346-1.43-.593-.38-.247-.66-.532-.844-.854a2.006 2.006 0 0 1-.277-1.009c0-.454.138-.84.415-1.155.275-.317.657-.57 1.144-.761a1.763 1.763 0 0 1-.617-.569c-.155-.234-.231-.539-.231-.914 0-.303.11-.623.33-.958.22-.336.56-.616 1.021-.841a3.28 3.28 0 0 1-1.234-1.112c-.302-.463-.452-1.005-.452-1.625 0-.507.103-.965.31-1.374.206-.407.501-.764.863-1.042.39-.298.831-.52 1.302-.657a5.588 5.588 0 0 1 1.628-.227c.868 0 1.634.17 2.3.514h2.978z"/><path d="M113.957 19.295c.776 0 1.351-.27 1.726-.806s.562-1.335.562-2.396c0-1.054-.187-1.85-.562-2.387-.374-.536-.95-.805-1.726-.805-.796 0-1.382.269-1.756.805-.375.537-.563 1.333-.563 2.387 0 1.06.188 1.86.562 2.396.375.537.96.806 1.757.806zm0-8.45c.763 0 1.457.122 2.081.366.604.23 1.152.586 1.609 1.043.447.451.791 1 1.036 1.645.243.646.365 1.374.365 2.184s-.122 1.54-.366 2.189a4.655 4.655 0 0 1-1.035 1.655 4.541 4.541 0 0 1-1.609 1.047c-.624.244-1.319.366-2.081.366-.77 0-1.469-.122-2.097-.366a4.528 4.528 0 0 1-1.613-1.047 4.705 4.705 0 0 1-1.04-1.655c-.247-.649-.37-1.379-.37-2.189 0-.81.123-1.537.37-2.183.247-.646.593-1.194 1.04-1.645.447-.451.985-.813 1.613-1.043.628-.244 1.327-.366 2.097-.366z"/></svg>
