<svg xmlns="http://www.w3.org/2000/svg" viewBox="0 0 417.59 92.29" fill="#1f2328"><path d="M302.49,27.17c0-3.43-2.53-5.73-6.06-5.73s-6.09,2.3-6.09,5.73,2.53,5.76,6.09,5.76,6.06-2.36,6.06-5.76h0Zm3.13-8.36v15.25c0,6.23-3.16,9.06-9.16,9.06-3.23,0-6.49-.9-8.43-2.63l1.53-2.46c1.63,1.4,4.2,2.3,6.79,2.3,4.16,0,6.06-1.93,6.06-5.93v-1.4c-1.53,1.83-3.83,2.73-6.36,2.73-5.1,0-8.96-3.46-8.96-8.56s3.86-8.53,8.96-8.53c2.63,0,5.03,.97,6.53,2.9v-2.73h3.03Z"/><polygon points="311.05 11.75 314.24 11.75 314.24 36.46 311.05 36.46 311.05 11.75 311.05 11.75"/><path d="M333.16,27.63c0-3.76-2.53-6.19-5.93-6.19s-5.96,2.43-5.96,6.19,2.56,6.23,5.96,6.23,5.93-2.46,5.93-6.23h0Zm-15.12,0c0-5.26,3.9-8.99,9.19-8.99s9.16,3.73,9.16,8.99-3.86,9.03-9.16,9.03-9.19-3.76-9.19-9.03h0Z"/><path d="M355.21,27.63c0-3.76-2.56-6.19-5.96-6.19s-5.93,2.43-5.93,6.19,2.56,6.23,5.93,6.23,5.96-2.46,5.96-6.23h0Zm3.23,0c0,5.4-3.76,9.03-8.93,9.03-2.6,0-4.86-1-6.29-3v2.8h-3.06V11.75h3.2v9.72c1.47-1.9,3.66-2.83,6.16-2.83,5.16,0,8.93,3.6,8.93,8.99h0Z"/><path d="M372.83,31.06v-2.46h-4.93c-3.16,0-4.06,1.23-4.06,2.73,0,1.76,1.47,2.86,3.9,2.86s4.3-1.1,5.09-3.13h0Zm3.2-5.26v10.66h-3.03v-2.33c-1.07,1.6-3.03,2.53-5.8,2.53-4,0-6.53-2.13-6.53-5.2,0-2.83,1.83-5.16,7.09-5.16h5.06v-.63c0-2.7-1.57-4.26-4.73-4.26-2.1,0-4.23,.73-5.6,1.9l-1.33-2.4c1.83-1.47,4.46-2.26,7.29-2.26,4.83,0,7.56,2.33,7.56,7.16h0Z"/><polygon points="381.28 11.75 384.48 11.75 384.48 36.46 381.28 36.46 381.28 11.75 381.28 11.75"/><polygon points="288.73 49.14 291.93 49.14 291.93 73.85 288.73 73.85 288.73 49.14 288.73 49.14"/><path d="M310.84,65.03c0-3.76-2.53-6.19-5.93-6.19s-5.96,2.43-5.96,6.19,2.56,6.23,5.96,6.23,5.93-2.46,5.93-6.23h0Zm-15.12,0c0-5.26,3.9-8.99,9.19-8.99s9.16,3.73,9.16,8.99-3.86,9.03-9.16,9.03-9.19-3.76-9.19-9.03h0Z"/><path d="M331.59,64.56c0-3.43-2.53-5.73-6.06-5.73s-6.09,2.3-6.09,5.73,2.53,5.76,6.09,5.76,6.06-2.36,6.06-5.76h0Zm3.13-8.36v15.25c0,6.23-3.16,9.06-9.16,9.06-3.23,0-6.49-.9-8.43-2.63l1.53-2.46c1.63,1.4,4.2,2.3,6.79,2.3,4.16,0,6.06-1.93,6.06-5.93v-1.4c-1.53,1.83-3.83,2.73-6.36,2.73-5.1,0-8.96-3.46-8.96-8.56s3.86-8.53,8.96-8.53c2.63,0,5.03,.97,6.53,2.9v-2.73h3.03Z"/><path d="M340.15,56.2h3.2v17.65h-3.2v-17.65h0Zm-.57-5.46c0-1.17,.93-2.1,2.16-2.1s2.16,.9,2.16,2.03c0,1.2-.9,2.13-2.16,2.13s-2.16-.9-2.16-2.07h0Z"/><path d="M346.55,71.99l1.33-2.53c1.5,1.07,3.9,1.83,6.19,1.83,2.96,0,4.2-.9,4.2-2.4,0-3.96-11.16-.53-11.16-7.56,0-3.16,2.83-5.3,7.36-5.3,2.3,0,4.9,.6,6.43,1.6l-1.36,2.53c-1.6-1.03-3.36-1.4-5.1-1.4-2.8,0-4.16,1.03-4.16,2.43,0,4.16,11.19,.77,11.19,7.63,0,3.2-2.93,5.23-7.63,5.23-2.93,0-5.83-.9-7.29-2.07h0Z"/><path d="M374.72,72.82c-.97,.83-2.43,1.23-3.86,1.23-3.56,0-5.6-1.97-5.6-5.53v-9.69h-3v-2.63h3v-3.86h3.2v3.86h5.06v2.63h-5.06v9.56c0,1.9,1,2.96,2.76,2.96,.93,0,1.83-.3,2.5-.83l1,2.3h0Z"/><path d="M377.92,56.2h3.2v17.65h-3.2v-17.65h0Zm-.57-5.46c0-1.17,.93-2.1,2.17-2.1s2.16,.9,2.16,2.03c0,1.2-.9,2.13-2.16,2.13s-2.17-.9-2.17-2.07h0Z"/><path d="M384.91,65.03c0-5.26,3.9-8.99,9.32-8.99,3.17,0,5.8,1.3,7.2,3.76l-2.43,1.57c-1.13-1.73-2.86-2.53-4.79-2.53-3.46,0-6.06,2.43-6.06,6.19s2.6,6.23,6.06,6.23c1.93,0,3.66-.8,4.79-2.53l2.43,1.53c-1.4,2.46-4.03,3.8-7.2,3.8-5.43,0-9.32-3.76-9.32-9.03h0Z"/><path d="M402.67,71.99l1.33-2.53c1.5,1.07,3.9,1.83,6.2,1.83,2.96,0,4.2-.9,4.2-2.4,0-3.96-11.16-.53-11.16-7.56,0-3.16,2.83-5.3,7.36-5.3,2.3,0,4.9,.6,6.43,1.6l-1.37,2.53c-1.6-1.03-3.36-1.4-5.09-1.4-2.8,0-4.16,1.03-4.16,2.43,0,4.16,11.19,.77,11.19,7.63,0,3.2-2.93,5.23-7.63,5.23-2.93,0-5.83-.9-7.29-2.07h0Z"/><path d="M20.88,50.37c0-9.59,7.4-16.4,17.76-16.4,6.69,0,11.96,2.9,14.26,8.11l-7.16,3.85c-1.72-3.02-4.26-4.38-7.16-4.38-4.68,0-8.35,3.26-8.35,8.82s3.67,8.82,8.35,8.82c2.9,0,5.45-1.3,7.16-4.38l7.16,3.91c-2.31,5.09-7.58,8.05-14.26,8.05-10.36,0-17.76-6.81-17.76-16.4Z"/><path d="M85.81,48.12v18.17h-8.64v-3.97c-1.72,2.9-5.03,4.44-9.71,4.44-7.46,0-11.9-4.14-11.9-9.65s3.97-9.53,13.67-9.53h7.34c0-3.96-2.37-6.27-7.34-6.27-3.37,0-6.87,1.12-9.17,2.96l-3.31-6.45c3.49-2.49,8.64-3.85,13.73-3.85,9.71,0,15.33,4.5,15.33,14.15Zm-9.23,8.11v-3.25h-6.33c-4.32,0-5.68,1.6-5.68,3.73,0,2.31,1.95,3.85,5.21,3.85,3.08,0,5.74-1.42,6.81-4.32Z"/><path d="M109.78,33.98v8.52c-.77-.06-1.36-.12-2.07-.12-5.09,0-8.46,2.78-8.46,8.88v15.03h-9.23v-31.84h8.82v4.2c2.25-3.08,6.04-4.68,10.95-4.68Z"/><path d="M145.65,22.38v43.92h-8.82v-3.67c-2.31,2.78-5.68,4.14-9.94,4.14-9,0-15.92-6.39-15.92-16.4s6.93-16.4,15.92-16.4c3.91,0,7.22,1.24,9.53,3.85v-15.45h9.23Zm-9.06,28c0-5.5-3.55-8.82-8.11-8.82s-8.17,3.31-8.17,8.82,3.55,8.82,8.17,8.82,8.11-3.31,8.11-8.82Z"/><path d="M150.09,24.86c0-2.9,2.31-5.15,5.74-5.15s5.74,2.13,5.74,4.97c0,3.08-2.31,5.33-5.74,5.33s-5.74-2.25-5.74-5.15Zm1.12,9.59h9.23v31.84h-9.23v-31.84Z"/><path d="M198.63,48.06v18.23h-9.23v-16.81c0-5.15-2.37-7.52-6.45-7.52-4.44,0-7.64,2.72-7.64,8.58v15.74h-9.23v-31.84h8.82v3.73c2.49-2.72,6.21-4.2,10.54-4.2,7.52,0,13.2,4.38,13.2,14.09Z"/><path d="M232.19,48.12v18.17h-8.64v-3.97c-1.72,2.9-5.03,4.44-9.71,4.44-7.46,0-11.9-4.14-11.9-9.65s3.96-9.53,13.67-9.53h7.34c0-3.96-2.37-6.27-7.34-6.27-3.37,0-6.87,1.12-9.17,2.96l-3.31-6.45c3.49-2.49,8.64-3.85,13.73-3.85,9.71,0,15.33,4.5,15.33,14.15Zm-9.23,8.11v-3.25h-6.33c-4.32,0-5.68,1.6-5.68,3.73,0,2.31,1.95,3.85,5.21,3.85,3.08,0,5.74-1.42,6.81-4.32Z"/><path d="M236.39,22.38h9.23v43.92h-9.23V22.38Z"/><path d="M262.51,83.17H9.11V9.11h253.39V83.17h0ZM0,92.29H271.62V0H0V92.29Z"/></svg>
