<svg viewBox="0 0 32 32" fill="none" xmlns="http://www.w3.org/2000/svg">
    <path d="M22.6 23.3l-1.3 1.9c-.2.3-.6.3-.9 0l-2.5-3.6-2-2.8-2-2.8-2.7-3.9c-.1-.2-.1-.4 0-.6l1.3-1.9c.2-.3.6-.3.9 0l2.5 3.6 2 2.8 2 2.8 2.7 3.9c.1.2.1.4 0 .6z" fill="#1f2328"/>
    <path d="M32 16c0 5.8-3.2 11.2-8.2 14-4.6 2.6-10.5 2.7-15.2.3l-.1-.1c-.2-.1-.3-.4-.2-.6l1.3-1.9c.2-.2.4-.3.7-.2 3.6 1.8 8 1.7 11.5-.2 6.3-3.1 8.7-11.6 5.2-17.6-.2-.3-.7-.4-.9 0l-2.2 3.2c-.1.2-.1.4 0 .6l2.5 3.6c.1.2.1.4 0 .6l-1.3 1.9-.1.1c-.1.1-.2.2-.4.2-.1 0-.3-.1-.3-.2 0 0 0 0-.1-.1-1.2-1.7-3.2-4.6-4.3-6.2-.1-.1-.1-.2-.1-.3 0-.1 0-.2.1-.2 1.2-1.7 3.4-4.9 4.5-6.4l1.5-2.2c.1-.1.2-.2.4-.2.2 0 .3 0 .4.1 3.2 3 5.1 7.3 5.1 11.7z" fill="#1f2328"/>
    <path d="M23.5 2.5l-1.3 1.8c0 0-.1.1-.1.1-.1.1-.2.2-.4.2 0 0-.1 0-.2 0-4.6-2.3-10.5-1.5-14.2 2-4.4 3.8-5.5 10.7-2.6 15.7.2.3.7.4.9 0l2.3-3.2c.1-.2.1-.4 0-.6l-2.5-3.6c-.1-.2-.1-.4 0-.6l1.3-1.9c.2-.3.6-.3.9 0 1.2 1.7 3.2 4.5 4.3 6.1 0 0 0 .1.1.1 0 .1.1.2.1.3 0 .1 0 .2-.1.2-1.2 1.7-3.4 4.9-4.5 6.4l-1.5 2.2-.1.1c-.1.1-.2.2-.4.2-.1 0-.2 0-.3-.1 0 0 0 0-.1-.1-6-5.3-6.9-15.3-1.9-21.5C8.8.2 17.7-1.8 24.3 1.7c.3.2.4.5.2.8z" fill="#1f2328"/>
</svg>
